<?xml version="1.0" encoding="UTF-8"?>
<svg xmlns="http://www.w3.org/2000/svg" xmlns:xlink="http://www.w3.org/1999/xlink" viewBox="0 0 240 240" width="240px" height="240px">
<g id="surface31999988">
<path style=" stroke:none;fill-rule:nonzero;fill:rgb(100%,100%,100%);fill-opacity:1;" d="M 201.234375 31.875 C 198.632812 31.988281 196.210938 32.746094 194.078125 33.609375 C 192.082031 34.414062 184.445312 37.6875 172.421875 42.84375 C 160.386719 48.003906 144.453125 54.847656 127.453125 62.15625 C 93.457031 76.777344 55.234375 93.234375 35.65625 101.65625 C 34.921875 101.972656 32.351562 102.792969 29.625 104.921875 C 26.898438 107.050781 24 111.460938 24 116.375 C 24 120.335938 25.886719 124.273438 28.265625 126.625 C 30.644531 128.976562 33.15625 130.136719 35.3125 131.015625 C 43.128906 134.207031 67.375 144.125 71.953125 146 C 73.5625 150.9375 82.339844 177.78125 84.375 184.359375 C 85.714844 188.699219 86.992188 191.421875 88.65625 193.578125 C 89.488281 194.65625 90.453125 195.601562 91.625 196.34375 C 92.09375 196.640625 92.605469 196.867188 93.125 197.078125 L 93.15625 197.09375 C 93.277344 197.140625 93.378906 197.222656 93.5 197.265625 C 93.730469 197.34375 93.882812 197.355469 94.1875 197.421875 C 95.40625 197.816406 96.636719 198.0625 97.734375 198.0625 C 102.414062 198.0625 105.28125 195.484375 105.28125 195.484375 L 105.453125 195.359375 L 129.53125 174.53125 L 158.734375 202.15625 C 159.144531 202.738281 162.980469 208 171.4375 208 C 176.460938 208 180.441406 205.480469 183 202.796875 C 185.558594 200.113281 187.152344 197.292969 187.828125 193.75 L 187.828125 193.734375 C 188.460938 190.386719 215.375 52.21875 215.375 52.21875 L 215.328125 52.40625 C 216.117188 48.808594 216.324219 45.460938 215.453125 42.15625 C 214.582031 38.851562 212.292969 35.6875 209.453125 33.984375 C 206.613281 32.28125 203.835938 31.761719 201.234375 31.875 Z M 199.734375 48.59375 C 199.695312 48.828125 199.761719 48.710938 199.703125 48.984375 L 199.671875 49.171875 C 199.671875 49.171875 173.09375 185.570312 172.109375 190.765625 C 172.179688 190.375 171.851562 191.152344 171.515625 191.625 C 171.039062 191.296875 170.0625 190.875 170.0625 190.875 L 169.90625 190.703125 L 130.015625 152.96875 L 101.8125 177.34375 L 110.203125 143.75 C 110.203125 143.75 162.652344 89.457031 165.8125 86.296875 C 168.355469 83.769531 168.890625 82.886719 168.890625 82.015625 C 168.890625 80.847656 168.28125 80 166.921875 80 C 165.699219 80 164.050781 81.191406 163.171875 81.75 C 151.707031 89.058594 101.375 118.394531 78.8125 131.515625 C 75.226562 130.046875 50.316406 119.851562 41.875 116.40625 C 41.9375 116.378906 41.917969 116.386719 41.984375 116.359375 C 61.566406 107.933594 99.773438 91.476562 133.765625 76.859375 C 150.761719 69.550781 166.710938 62.703125 178.734375 57.546875 C 190.574219 52.46875 198.800781 48.976562 199.734375 48.59375 Z M 199.734375 48.59375 "/>
</g>
</svg>
